<?xml version="1.0" encoding="utf-8"?>
<!-- Generator: Adobe Illustrator 27.7.0, SVG Export Plug-In . SVG Version: 6.00 Build 0)  -->
<svg version="1.1" id="Layer_1" xmlns="http://www.w3.org/2000/svg" xmlns:xlink="http://www.w3.org/1999/xlink" x="0px" y="0px"
	 viewBox="0 0 24 24" style="enable-background:new 0 0 24 24;" xml:space="preserve">
<style type="text/css">
	.st0{fill:#EFF3F4;}
</style>
<path class="st0" d="M12,19c-1.9,0-3.6-0.7-4.9-2S5,13.9,5,12s0.7-3.6,2.1-5S10.1,5,12,5s3.6,0.7,5,2.1s2,3,2,5s-0.7,3.6-2,5
	S13.9,19,12,19z M12,17c1.4,0,2.6-0.5,3.5-1.5c1-1,1.5-2.2,1.5-3.5s-0.5-2.6-1.5-3.5S13.4,7,12,7S9.4,7.5,8.5,8.5S7,10.6,7,12
	s0.5,2.6,1.5,3.5C9.4,16.5,10.6,17,12,17z"/>
</svg>
